<?xml version="1.0" standalone="no"?>
<!DOCTYPE svg PUBLIC "-//W3C//DTD SVG 20010904//EN"
 "http://www.w3.org/TR/2001/REC-SVG-20010904/DTD/svg10.dtd">
<svg version="1.0" xmlns="http://www.w3.org/2000/svg"
 width="202.000000pt" height="202.000000pt" viewBox="0 0 202.000000 202.000000"
 preserveAspectRatio="xMidYMid meet">
<metadata>
Created by potrace 1.11, written by Peter Selinger 2001-2013
</metadata>
<g transform="translate(0.000000,202.000000) scale(0.100000,-0.100000)"
fill="#000000" stroke="none">
<path d="M240 1868 c0 -5 -7 -8 -15 -8 -8 0 -26 -15 -40 -32 l-26 -33 1 -778
c0 -873 -4 -819 74 -856 45 -21 51 -21 783 -21 l738 1 45 22 c85 42 80 -10 80
852 0 736 -1 761 -20 792 -41 67 13 63 -843 66 -428 1 -777 -1 -777 -5z m422
-285 l118 -117 -117 -118 -117 -117 -118 -3 c-65 -2 -118 -1 -118 2 0 3 51 55
112 117 l113 113 -113 113 c-61 62 -112 116 -112 120 0 4 52 7 117 7 l116 0
119 -117z m495 -1 l122 -118 -117 -116 -117 -117 -118 -3 c-64 -2 -117 -1
-117 2 0 3 51 55 112 117 l113 113 -113 113 c-61 62 -112 116 -112 120 0 4 51
7 113 7 l112 -1 122 -117z m498 -2 l120 -120 -115 -115 -115 -115 -120 0 -120
0 115 115 115 115 -113 113 c-61 62 -112 116 -112 120 0 4 51 7 113 7 l112 0
120 -120z m-1190 -534 c40 -17 41 -22 16 -55 -14 -18 -22 -21 -37 -14 -52 27
-60 -24 -8 -52 99 -53 72 -185 -38 -185 -21 0 -50 7 -63 16 -24 16 -24 17 -8
45 18 31 28 35 38 19 3 -5 17 -10 31 -10 34 0 32 35 -4 54 -86 45 -91 152 -7
187 29 11 42 11 80 -5z m480 0 c44 -19 75 -78 75 -145 0 -97 -46 -161 -115
-161 -76 0 -117 54 -118 155 -1 75 23 122 73 147 42 22 42 22 85 4z m-335 -51
c0 -54 0 -55 30 -55 30 0 30 1 30 55 l0 55 35 0 35 0 0 -155 0 -155 -35 0 -35
0 0 65 0 65 -30 0 -30 0 0 -66 0 -65 -37 3 -38 3 -3 153 -3 152 41 0 40 0 0
-55z m515 -6 c13 -111 21 -122 29 -40 10 96 12 101 51 101 37 0 39 -4 50 -80
12 -86 19 -87 30 -5 l10 80 38 3 38 3 -6 -43 c-4 -24 -16 -92 -28 -153 l-22
-110 -34 -3 c-18 -2 -37 0 -42 5 -5 5 -14 44 -21 88 l-13 80 -15 -85 -15 -85
-34 -3 c-18 -2 -37 0 -42 5 -9 9 -59 252 -59 286 0 13 9 17 39 17 l39 0 7 -61z
m-397 -369 c41 -25 62 -73 62 -144 0 -100 -41 -156 -115 -156 -74 0 -115 56
-115 156 0 71 21 119 62 144 42 25 64 25 106 0z m292 -1 c0 -5 -14 -37 -31
-71 l-31 -61 32 -71 c18 -39 34 -77 37 -84 4 -10 -5 -13 -37 -10 -40 3 -43 5
-60 48 l-17 44 -21 -47 c-19 -43 -24 -47 -56 -47 -20 0 -36 4 -36 9 0 5 15 41
34 81 l34 71 -25 57 c-14 31 -30 61 -34 67 -17 18 -9 25 31 25 38 0 41 -3 57
-41 l16 -41 14 33 c7 18 12 38 10 43 -3 7 11 10 39 7 24 -1 44 -7 44 -12z
m-531 -15 c34 -28 41 -67 17 -99 -12 -17 -12 -22 5 -44 36 -46 18 -107 -39
-130 -16 -7 -53 -11 -83 -9 l-54 3 -3 153 -3 152 65 0 c55 0 69 -4 95 -26z"/>
<path d="M882 968 c-19 -19 -16 -133 4 -149 38 -31 70 67 44 135 -10 28 -29
33 -48 14z"/>
<path d="M650 541 c-16 -31 -12 -117 6 -135 8 -9 17 -16 19 -16 2 0 11 7 19
16 19 19 22 124 4 142 -18 18 -36 15 -48 -7z"/>
<path d="M405 535 c0 -20 4 -25 20 -23 12 2 20 11 20 23 0 12 -8 21 -20 23
-16 2 -20 -3 -20 -23z"/>
<path d="M405 420 c0 -25 4 -30 20 -28 14 2 20 11 20 28 0 17 -6 26 -20 28
-16 2 -20 -3 -20 -28z"/>
</g>
</svg>
